<?xml version="1.0" encoding="UTF-8"?>
<svg width="115px" height="170px" viewBox="0 0 115 170" version="1.1" xmlns="http://www.w3.org/2000/svg" xmlns:xlink="http://www.w3.org/1999/xlink">
    <!-- Generator: sketchtool 51.3 (57544) - http://www.bohemiancoding.com/sketch -->
    <title>CBB34866-D8AF-451C-9DD2-3259D2F00B2F</title>
    <desc>Created with sketchtool.</desc>
    <defs></defs>
    <g id="Pos" stroke="none" stroke-width="1" fill="none" fill-rule="evenodd">
        <g id="POS---Landing" transform="translate(-776.000000, -341.000000)">
            <g id="Ticket-Empty-State" transform="translate(714.000000, 341.000000)">
                <g id="Empty-Cart-" transform="translate(63.000000, 0.000000)">
                    <path d="M103.606902,128.112944 L112.880948,87.307378 C113.550512,84.3611376 111.31111,81.5555588 108.289733,81.5555588 L31.2335219,81.5555588 L29.4353305,72.7647058 C28.987254,70.5735646 27.059191,69 24.8225359,69 L4.70833455,69 C2.10796061,69 0,71.1079606 0,73.7083345 L0,76.8472242 C0,79.4475982 2.10796061,81.5555588 4.70833455,81.5555588 L18.4180238,81.5555588 L32.1993191,148.930845 C28.9023078,150.826931 26.6805624,154.382116 26.6805624,158.458356 C26.6805624,164.52583 31.5992026,169.44447 37.6666764,169.44447 C43.7341502,169.44447 48.6527903,164.52583 48.6527903,158.458356 C48.6527903,155.383422 47.388014,152.605308 45.3522478,150.611132 L86.4809234,150.611132 C84.4453534,152.605308 83.180577,155.383422 83.180577,158.458356 C83.180577,164.52583 88.0992172,169.44447 94.166691,169.44447 C100.234165,169.44447 105.152805,164.52583 105.152805,158.458356 C105.152805,154.10864 102.624429,150.34982 98.9576175,148.569873 L100.039946,143.807393 C100.70951,140.861152 98.4701087,138.055573 95.4487312,138.055573 L42.7903253,138.055573 L41.5063232,131.777794 L99.015687,131.777794 C101.214087,131.777794 103.119785,130.25661 103.606902,128.112944 Z" id="Shape" stroke="#B2B2B2" stroke-dasharray="2" fill-rule="nonzero"></path>
                    <path d="M62.36,5 C63.21334,5 63.97333,5.33333 64.64,6 C65.30667,6.66667 65.64,7.45333 65.64,8.36 L65.64,16.84 C73.21337,17.69334 79.55997,20.95997 84.68,26.64 C89.80003,32.32003 92.36,38.99996 92.36,46.68 L92.36,50.04 C88.94665,44.866641 85.05336,41.386676 80.68,39.6 C76.30664,37.81332 71.29336,36.84 65.64,36.68 L65.64,45 C65.64,45.906671 65.30667,46.69333 64.64,47.36 C63.97333,48.02667 63.21334,48.36 62.36,48.36 C61.4,48.36 60.6,48.040003 59.96,47.4 L39,26.68 L59.96,5.96 C60.6,5.32 61.4,5 62.36,5 Z" id="Fill-1" fill="#E3E1E1" transform="translate(65.680000, 27.520000) rotate(-90.000000) translate(-65.680000, -27.520000) "></path>
                </g>
            </g>
        </g>
    </g>
</svg>