<svg xmlns="http://www.w3.org/2000/svg" viewBox="0 0 1194 1194"><defs><style>.cls-1{fill:#fff;}.cls-2{fill:#d33838;}.cls-3{fill:#d23938;}.cls-4{fill:#4d4d4d;}</style></defs><title>app_brand_helix</title><g id="Layer_2" data-name="Layer 2"><g id="Helix"><circle class="cls-1" cx="597" cy="597" r="597"/><path class="cls-2" d="M600.53,387a146,146,0,1,1-103.24,42.76A145,145,0,0,1,600.53,387m0-33a179,179,0,1,0,179,179,179,179,0,0,0-179-179Z"/><path class="cls-3" d="M642.55,484.5c5.73-46.66-19.46-59-42-59s-47.78,12.34-42,59c2.87,23.32,23.5,50,42,50S639.68,507.82,642.55,484.5Z"/><path class="cls-3" d="M600.58,657c41.4-.06,74.85-22.16,103-59-7.85-24.88-36-47-74-59,0,0-1,41-5,59s-24,33-24,33h-.1s-20-15-24-33-5-59-5-59c-38,12-66.16,34.12-74,59,28.14,36.84,61.6,58.94,103,59Z"/><path class="cls-3" d="M600.58,618c7.11-5.85,11.72-12.19,14-19a111.51,111.51,0,0,0-10-23s9-5,9-12-13-10-13-10h-.1s-13,3-13,10,9,12,9,12a111,111,0,0,0-10,23c2.27,6.81,6.88,13.15,14,19Z"/><circle class="cls-2" cx="600.53" cy="268" r="15"/><circle class="cls-2" cx="600.53" cy="816" r="15"/><circle class="cls-2" cx="345" cy="395" r="15"/><circle class="cls-2" cx="856" cy="395" r="15"/><path class="cls-2" d="M600.53,216.39A650.72,650.72,0,0,0,730,311a613,613,0,0,0,159.16,61.67,582,582,0,0,1-17.45,144.09,545.14,545.14,0,0,1-61,147.8c-26.84,44.71-59.46,83.92-97,116.55a419.22,419.22,0,0,1-113.27,71,419.27,419.27,0,0,1-113.28-71c-37.5-32.63-70.12-71.84-96.95-116.55a545.16,545.16,0,0,1-61-147.8,583,583,0,0,1-17.45-144.09A612.85,612.85,0,0,0,471,311a650.79,650.79,0,0,0,129.51-94.58m0-44.89h-.09c-84,87-196,152-320,175-11,247,124,465,320,540h.09c196-75,331-293,320-540-124-23-236-88-320-175Z"/><path class="cls-4" d="M600.58,1008a428.11,428.11,0,0,0,62.84-4.62l19.78-2.94,14.72-54.11a366.9,366.9,0,0,0,99-42.75l48.52,26.54,15.68-12.41a429.28,429.28,0,0,0,84.54-89.59l11.51-16.35-30.09-43.32a397.41,397.41,0,0,0,39-94.39l52.29-14.15,3.17-19.75c4-24.91,6-68.53,6-94.16l-91-1-9,39h59.55q-.6,13.39-2,26.66L936.59,623l-4.09,19.58a358.51,358.51,0,0,1-50.31,122.62L871.3,782l22,48.75A388.68,388.68,0,0,1,856.68,869l-47.45-22.25L792.89,858.3a328.56,328.56,0,0,1-131.51,55.25l-19.68,3.58-14,49.93c-9,.62-18.07.94-27.12.94h-.1c-9.05,0-18.12-.32-27.13-.94l-14-49.93-19.67-3.58A328.54,328.54,0,0,1,408.16,858.3l-16.33-11.54L344.37,869a387.42,387.42,0,0,1-36.61-38.28l22-48.75-10.9-16.77a358.71,358.71,0,0,1-50.31-122.62L264.46,623l-48.53-12.35q-1.41-13.24-2-26.66h59.55l-9-39-91,1c0,25.63,2,69.25,6,94.16l3.18,19.75L235,674.06a398.24,398.24,0,0,0,39,94.39l-30.09,43.32,11.51,16.35a429.54,429.54,0,0,0,84.54,89.59l15.68,12.41,48.53-26.54a366.7,366.7,0,0,0,99,42.75l14.72,54.11,19.79,2.94a428.11,428.11,0,0,0,62.84,4.62Z"/></g></g></svg>