<svg xmlns="http://www.w3.org/2000/svg" viewBox="0 0 1194 1194"><defs><style>.cls-1{fill:#3fb63f;}.cls-2{fill:#fff;}</style></defs><title>app_brand_cannabase</title><g id="Layer_2" data-name="Layer 2"><g id="cannabase"><circle class="cls-1" cx="597" cy="597" r="597"/><path class="cls-2" d="M588,542.33,390.2,429.08a3,3,0,0,1,0-5.16L588,310.67a3,3,0,0,1,3,0L788.8,423.92a3,3,0,0,1,0,5.16L591,542.33A3,3,0,0,1,588,542.33Z"/><path class="cls-2" d="M374.44,674.59,575.5,793a3,3,0,0,1,1.47,2.56l.18,82.26a3,3,0,0,1-4.49,2.57L371.42,762a3,3,0,0,1-1.47-2.57V677.15A3,3,0,0,1,374.44,674.59Z"/><path class="cls-2" d="M374.44,447.59,575.5,566a3,3,0,0,1,1.47,2.56l.18,82.26a3,3,0,0,1-4.49,2.57L371.42,535a3,3,0,0,1-1.47-2.57V450.15A3,3,0,0,1,374.44,447.59Z"/><path class="cls-2" d="M374.44,561.09,575.5,679.52a3,3,0,0,1,1.47,2.56l.18,82.26a3,3,0,0,1-4.49,2.57L371.42,648.48a3,3,0,0,1-1.47-2.57V563.65A3,3,0,0,1,374.44,561.09Z"/><rect class="cls-2" x="369.95" y="520" width="22.05" height="198"/><path class="cls-2" d="M802.67,674.59,601.61,793a3,3,0,0,0-1.47,2.56L600,877.84a3,3,0,0,0,4.48,2.57L805.69,762a3,3,0,0,0,1.47-2.57V677.15A3,3,0,0,0,802.67,674.59Z"/><path class="cls-2" d="M802.67,447.59,601.61,566a3,3,0,0,0-1.47,2.56L600,650.84a3,3,0,0,0,4.48,2.57L805.69,535a3,3,0,0,0,1.47-2.57V450.15A3,3,0,0,0,802.67,447.59Z"/><path class="cls-2" d="M802.67,561.09,601.61,679.52a3,3,0,0,0-1.47,2.56L600,764.34a3,3,0,0,0,4.48,2.57L805.69,648.48a3,3,0,0,0,1.47-2.57V563.65A3,3,0,0,0,802.67,561.09Z"/></g></g></svg>