<svg xmlns="http://www.w3.org/2000/svg" xmlns:xlink="http://www.w3.org/1999/xlink" viewBox="0 0 1198.76 1193.3"><defs><style>.cls-1,.cls-2,.cls-3,.cls-4{fill-rule:evenodd;}.cls-1{fill:url(#radial-gradient);}.cls-2{fill:#363;}.cls-3{fill:url(#radial-gradient-2);}.cls-4{fill:url(#radial-gradient-3);}</style><radialGradient id="radial-gradient" cx="599.38" cy="597.87" r="378.49" gradientUnits="userSpaceOnUse"><stop offset="0" stop-color="#ccebff"/><stop offset="0.75" stop-color="#09f"/><stop offset="1" stop-color="#0061a1"/></radialGradient><radialGradient id="radial-gradient-2" cx="608.33" cy="595.28" r="659.93" gradientUnits="userSpaceOnUse"><stop offset="0" stop-color="#a6ff33"/><stop offset="0.2" stop-color="#9c3"/><stop offset="0.75" stop-color="#244a00"/></radialGradient><radialGradient id="radial-gradient-3" cx="609.21" cy="595.28" r="659.93" xlink:href="#radial-gradient-2"/></defs><title>app_brand_bioTrackTHC</title><g id="Layer_2" data-name="Layer 2"><g id="biotrack_thc" data-name="biotrack thc"><path id="SVGID" class="cls-1" d="M599.38,219.38c209,0,378.49,169.45,378.49,378.49S808.41,976.36,599.38,976.36,220.89,806.9,220.89,597.87,390.34,219.38,599.38,219.38"/><path class="cls-2" d="M1111.53,902.83c-48.18,74.55-161.63,142.84-322.1,176-243.32,50.32-454.6-72.12-557.21-232.91,133.46,205.66,440.27,249.12,588.49,183.4-106.63-593-555.14-224-711-510.76C23.88,750.77,199,1064.73,375.83,1143.16c1.32.56,2.63,1.12,4,1.64q6.22,2.51,12.5,4.88c1.49.56,3,1.08,4.46,1.63,2.77,1,5.52,2,8.29,3,1.81.63,3.63,1.24,5.46,1.86,2.49.85,5,1.7,7.51,2.52,1.91.61,3.82,1.19,5.72,1.81,2.41.76,4.84,1.5,7.27,2.22,1.89.58,3.82,1.15,5.73,1.69,2.49.73,5,1.43,7.48,2.14l5.82,1.56c2.42.65,4.85,1.26,7.29,1.89,2,.49,3.93,1,5.92,1.44,2.57.65,5.16,1.24,7.75,1.83l5.42,1.21c2.83.61,5.67,1.19,8.5,1.76,1.63.34,3.28.69,4.91,1,4.36.85,8.75,1.64,13.13,2.37,1.13.2,2.26.38,3.39.56,3.33.55,6.64,1.09,10,1.56,1.78.27,3.57.51,5.36.77,2.7.35,5.39.73,8.08,1.06,2,.25,4,.47,6,.7l7.5.81c2,.2,4,.4,6,.58,2.54.24,5.07.44,7.61.65l6.17.44c2.41.18,4.82.31,7.25.45,2.16.11,4.31.24,6.47.34,2.49.1,5,.19,7.47.27,2,.07,4,.15,6,.19,2.88.08,5.77.09,8.67.11,1.66,0,3.31,0,5,0q6.2,0,12.41-.12c1.77,0,3.55-.1,5.32-.16,3.09-.11,6.17-.18,9.27-.33,1.95-.09,3.92-.23,5.89-.31l7.62-.45c2.06-.17,4.13-.32,6.2-.48l7.65-.64,6.14-.6c2.48-.25,5-.54,7.44-.81l6.2-.76c2.49-.3,5-.64,7.46-1l6.32-.91c2.5-.36,5-.78,7.46-1.17,2-.32,4-.64,6-1,2.9-.51,5.8-1,8.7-1.58,1.61-.32,3.22-.59,4.81-.91q6.42-1.24,12.81-2.66l.6-.12.07,0,1.73-.42c3.85-.86,7.71-1.74,11.57-2.7,1.82-.43,3.62-.93,5.42-1.39,2.65-.67,5.28-1.34,7.92-2.06,2-.54,4.05-1.12,6.08-1.69,2.45-.68,4.9-1.39,7.35-2.1,2-.59,4-1.21,6-1.81,2.49-.76,5-1.54,7.45-2.35,2-.62,4-1.28,5.92-1.94,2.46-.8,4.9-1.65,7.36-2.51,2-.68,4-1.37,5.95-2.09q3.78-1.36,7.52-2.77c1.87-.71,3.73-1.39,5.58-2.11,2.71-1,5.43-2.14,8.12-3.24,1.67-.66,3.33-1.32,5-2,3.63-1.49,7.23-3,10.83-4.63l2.15-.92,0,0c31.78-14,62.35-31.71,92.6-51.19C1005,1042.26,1111.53,902.83,1111.53,902.83Z"/><path class="cls-3" d="M1112.58,902.83c-61.35,74.11-173.83,162.91-317.83,192.69C539,1148.42,341.13,1015,233.27,846c36.6,56.39,31.53,49.4,0,0,133.46,205.66,440.27,249.12,588.49,183.4C728.14,508.69,369.58,734.66,178,603.53a218.6,218.6,0,0,1-74-63.69c-73.66,230.49,94.6,531.68,267.78,608.47,1.31.57,2.63,1.12,4,1.64q6.21,2.52,12.5,4.89c1.48.55,3,1.07,4.45,1.63l8.29,3c1.82.63,3.64,1.24,5.46,1.85,2.5.85,5,1.7,7.51,2.52,1.91.62,3.83,1.2,5.72,1.81,2.42.76,4.84,1.51,7.27,2.23,1.9.58,3.82,1.15,5.73,1.69,2.49.73,5,1.43,7.49,2.13l5.81,1.57c2.42.64,4.86,1.25,7.29,1.88,2,.49,3.93,1,5.93,1.45,2.57.64,5.16,1.24,7.74,1.82l5.43,1.21c2.82.61,5.66,1.2,8.49,1.76,1.64.35,3.28.69,4.91,1,4.36.86,8.76,1.65,13.14,2.38l3.39.55c3.32.55,6.64,1.09,10,1.57,1.78.27,3.57.51,5.36.76,2.69.36,5.39.73,8.08,1.06,2,.26,4,.48,6,.7,2.49.29,5,.56,7.49.81,2,.21,4,.4,6.05.58,2.54.24,5.06.45,7.61.66l6.17.43c2.41.18,4.82.32,7.25.45,2.16.12,4.3.24,6.47.34,2.48.11,5,.2,7.46.27q3,.12,6,.2c2.88.07,5.78.09,8.67.1,1.67,0,3.31,0,5,0,4.12,0,8.27,0,12.4-.12,1.77,0,3.55-.11,5.33-.17,3.08-.1,6.17-.18,9.26-.33,2-.09,3.92-.22,5.9-.31l7.62-.45,6.2-.48q3.81-.3,7.65-.64l6.13-.59,7.44-.81,6.2-.76c2.49-.3,5-.64,7.47-1l6.32-.91c2.5-.36,5-.78,7.45-1.17,2-.33,4-.64,6-1,2.9-.51,5.81-1,8.7-1.59,1.62-.31,3.23-.58,4.82-.91,4.28-.82,8.55-1.72,12.81-2.66l.6-.12h.07l1.72-.42c3.86-.87,7.71-1.75,11.57-2.7,1.82-.44,3.62-.93,5.42-1.39,2.65-.67,5.29-1.35,7.93-2.06,2-.54,4-1.12,6.08-1.69q3.68-1,7.34-2.11c2-.58,4-1.21,6-1.8,2.49-.77,5-1.54,7.45-2.35,2-.63,4-1.28,5.92-1.94,2.47-.81,4.91-1.66,7.37-2.51,2-.69,4-1.37,5.94-2.09q3.78-1.37,7.53-2.78c1.86-.7,3.72-1.39,5.57-2.1,2.72-1.05,5.44-2.14,8.13-3.24,1.66-.66,3.32-1.32,5-2q5.43-2.25,10.82-4.63l2.16-.93h0c31.78-14,62.36-31.71,92.6-51.2C997,1049.93,1087.23,950.87,1112.58,902.83Z"/><path id="SVGID-2" data-name="SVGID" class="cls-2" d="M1139.16,863c44.13-88.31,60.11-189.11,58-270.2-7.36-280-188.71-466.31-370.9-540.66C727.09,11.64,627.06,2.43,545.43,10.2,434.82,20.72,357.52,58.79,357.52,58.79a614.92,614.92,0,0,0-93.6,52C-9.36,294.63-80.45,667.07,103.79,939.72a600,600,0,0,0,216.29,194.42c-64.74-41.32-134.84-103.73-180.52-171.33-179-265-99.8-625.37,169.59-798.3C486.87,50.42,874.4,0,1098.16,381.84,915.52,70.17,534.17,67.25,379.25,158.92,502.26,842,1081,252.85,1139.14,861.38"/><path class="cls-4" d="M1160.15,810.58c29.29-76.42,40.2-157.81,38.42-225.49-7.36-280-188.71-466.31-370.89-540.66C728.53,4,628.49-5.25,546.86,2.51,436.26,13,359,51.1,359,51.1a615,615,0,0,0-93.6,52c-229.22,154.19-319.6,446.3-233,695.69-63.46-244,38.68-518,263.6-662.41C482.65,16.57,862-19.19,1097,381.84h0C914.39,70.17,533,67.25,378.12,158.92c20.93,116.23,55.14,195.37,97.77,249.72C687.5,662.57,1084.88,367.85,1160.15,810.58Z"/></g></g></svg>