<svg xmlns="http://www.w3.org/2000/svg" viewBox="0 0 1194 1194"><defs><style>.cls-1{fill:#ffc117;}.cls-2{fill:#d68700;}.cls-3{fill:#fff;}.cls-4{fill:none;stroke:#fff;stroke-miterlimit:10;stroke-width:10px;}</style></defs><title>app_brandcannlytics</title><g id="Layer_2" data-name="Layer 2"><g id="cannalytics"><circle class="cls-1" cx="597" cy="597" r="597"/><path class="cls-2" d="M597.21,272.25s-93.5,206-42.5,389c-74-126-242-232-242-232s51,189,180,290c-101-58-257-39-257-39s107,92,212,114c-66,29-120,87-120,87s193.5-7,269.5-57h0c76,50,269.5,57,269.5,57s-54-58-120-87c105-22,212-114,212-114s-156-19-257,39c129-101,180-290,180-290s-168,106-242,232c51-183-42.5-389-42.5-389Z"/><g id="lines_circles" data-name="lines &amp; circles"><path class="cls-3" d="M516,509a43,43,0,1,1-43,43,43,43,0,0,1,43-43m0-10a53,53,0,1,0,53,53,53,53,0,0,0-53-53Z"/><path class="cls-3" d="M676,648a43,43,0,1,1-43,43,43,43,0,0,1,43-43m0-10a53,53,0,1,0,53,53,53,53,0,0,0-53-53Z"/><path class="cls-3" d="M359,826a43,43,0,1,1-43,43,43,43,0,0,1,43-43m0-10a53,53,0,1,0,53,53,53,53,0,0,0-53-53Z"/><path class="cls-3" d="M845,429a43,43,0,1,1-43,43,43,43,0,0,1,43-43m0-10a53,53,0,1,0,53,53,53,53,0,0,0-53-53Z"/><line class="cls-4" x1="813" y1="510" x2="702" y2="649"/><line class="cls-4" x1="640" y1="658" x2="551" y2="586"/><line class="cls-4" x1="495" y1="598" x2="377" y2="822"/></g></g></g></svg>